<?xml version="1.0" encoding="UTF-8"?>
<svg version="1.1" xmlns="http://www.w3.org/2000/svg" width="512" height="512">
<path d="M0 0 C1.45108658 0.00273422 1.45108658 0.00273422 2.93148804 0.00552368 C17.26440977 0.05095174 31.21023917 0.55983928 45.3125 3.3125 C46.65803955 3.55395752 46.65803955 3.55395752 48.03076172 3.80029297 C107.84088904 14.62287989 165.35495829 48.68064457 202.3125 97.3125 C202.72918945 97.85277832 203.14587891 98.39305664 203.57519531 98.94970703 C211.2584873 108.9447116 218.00092968 119.40459036 224.3125 130.3125 C224.70679199 130.98974121 225.10108398 131.66698242 225.50732422 132.36474609 C238.68961173 155.2833756 247.29510918 180.85822563 252.625 206.6875 C252.77243652 207.39817627 252.91987305 208.10885254 253.07177734 208.84106445 C256.05713787 224.48358366 256.6873098 240.11919606 256.625 256 C256.62226578 257.45108658 256.62226578 257.45108658 256.61947632 258.93148804 C256.57404826 273.26440977 256.06516072 287.21023917 253.3125 301.3125 C253.15152832 302.20952637 252.99055664 303.10655273 252.82470703 304.03076172 C242.00212011 363.84088904 207.94435543 421.35495829 159.3125 458.3125 C158.77222168 458.72918945 158.23194336 459.14587891 157.67529297 459.57519531 C147.6802884 467.2584873 137.22040964 474.00092968 126.3125 480.3125 C125.63525879 480.70679199 124.95801758 481.10108398 124.26025391 481.50732422 C101.3416244 494.68961173 75.76677437 503.29510918 49.9375 508.625 C49.22682373 508.77243652 48.51614746 508.91987305 47.78393555 509.07177734 C32.14141634 512.05713787 16.50580394 512.6873098 0.625 512.625 C-0.34239105 512.62317719 -1.3097821 512.62135437 -2.30648804 512.61947632 C-16.63940977 512.57404826 -30.58523917 512.06516072 -44.6875 509.3125 C-45.58452637 509.15152832 -46.48155273 508.99055664 -47.40576172 508.82470703 C-107.21588904 498.00212011 -164.72995829 463.94435543 -201.6875 415.3125 C-202.10418945 414.77222168 -202.52087891 414.23194336 -202.95019531 413.67529297 C-210.6334873 403.6802884 -217.37592968 393.22040964 -223.6875 382.3125 C-224.08179199 381.63525879 -224.47608398 380.95801758 -224.88232422 380.26025391 C-238.06461173 357.3416244 -246.67010918 331.76677437 -252 305.9375 C-252.14743652 305.22682373 -252.29487305 304.51614746 -252.44677734 303.78393555 C-255.43213787 288.14141634 -256.0623098 272.50580394 -256 256.625 C-255.99817719 255.65760895 -255.99635437 254.6902179 -255.99447632 253.69351196 C-255.94904826 239.36059023 -255.44016072 225.41476083 -252.6875 211.3125 C-252.44604248 209.96696045 -252.44604248 209.96696045 -252.19970703 208.59423828 C-241.37712011 148.78411096 -207.31935543 91.27004171 -158.6875 54.3125 C-158.14722168 53.89581055 -157.60694336 53.47912109 -157.05029297 53.04980469 C-147.0552884 45.3665127 -136.59540964 38.62407032 -125.6875 32.3125 C-125.01025879 31.91820801 -124.33301758 31.52391602 -123.63525391 31.11767578 C-100.7166244 17.93538827 -75.14177437 9.32989082 -49.3125 4 C-48.60182373 3.85256348 -47.89114746 3.70512695 -47.15893555 3.55322266 C-31.51641634 0.56786213 -15.88080394 -0.0623098 0 0 Z " fill="#FED300" transform="translate(255.6875,-0.3125)"/>
<path d="M0 0 C1.45108658 0.00273422 1.45108658 0.00273422 2.93148804 0.00552368 C17.26440977 0.05095174 31.21023917 0.55983928 45.3125 3.3125 C46.65803955 3.55395752 46.65803955 3.55395752 48.03076172 3.80029297 C107.84088904 14.62287989 165.35495829 48.68064457 202.3125 97.3125 C202.72918945 97.85277832 203.14587891 98.39305664 203.57519531 98.94970703 C211.2584873 108.9447116 218.00092968 119.40459036 224.3125 130.3125 C224.70679199 130.98974121 225.10108398 131.66698242 225.50732422 132.36474609 C238.68961173 155.2833756 247.29510918 180.85822563 252.625 206.6875 C252.77243652 207.39817627 252.91987305 208.10885254 253.07177734 208.84106445 C256.05713787 224.48358366 256.6873098 240.11919606 256.625 256 C256.62226578 257.45108658 256.62226578 257.45108658 256.61947632 258.93148804 C256.57404826 273.26440977 256.06516072 287.21023917 253.3125 301.3125 C253.15152832 302.20952637 252.99055664 303.10655273 252.82470703 304.03076172 C242.00212011 363.84088904 207.94435543 421.35495829 159.3125 458.3125 C158.77222168 458.72918945 158.23194336 459.14587891 157.67529297 459.57519531 C147.6802884 467.2584873 137.22040964 474.00092968 126.3125 480.3125 C125.63525879 480.70679199 124.95801758 481.10108398 124.26025391 481.50732422 C101.3416244 494.68961173 75.76677437 503.29510918 49.9375 508.625 C49.22682373 508.77243652 48.51614746 508.91987305 47.78393555 509.07177734 C32.14141634 512.05713787 16.50580394 512.6873098 0.625 512.625 C-0.34239105 512.62317719 -1.3097821 512.62135437 -2.30648804 512.61947632 C-16.63940977 512.57404826 -30.58523917 512.06516072 -44.6875 509.3125 C-45.58452637 509.15152832 -46.48155273 508.99055664 -47.40576172 508.82470703 C-107.21588904 498.00212011 -164.72995829 463.94435543 -201.6875 415.3125 C-202.10418945 414.77222168 -202.52087891 414.23194336 -202.95019531 413.67529297 C-210.6334873 403.6802884 -217.37592968 393.22040964 -223.6875 382.3125 C-224.08179199 381.63525879 -224.47608398 380.95801758 -224.88232422 380.26025391 C-238.06461173 357.3416244 -246.67010918 331.76677437 -252 305.9375 C-252.14743652 305.22682373 -252.29487305 304.51614746 -252.44677734 303.78393555 C-255.43213787 288.14141634 -256.0623098 272.50580394 -256 256.625 C-255.99817719 255.65760895 -255.99635437 254.6902179 -255.99447632 253.69351196 C-255.94904826 239.36059023 -255.44016072 225.41476083 -252.6875 211.3125 C-252.44604248 209.96696045 -252.44604248 209.96696045 -252.19970703 208.59423828 C-241.37712011 148.78411096 -207.31935543 91.27004171 -158.6875 54.3125 C-158.14722168 53.89581055 -157.60694336 53.47912109 -157.05029297 53.04980469 C-147.0552884 45.3665127 -136.59540964 38.62407032 -125.6875 32.3125 C-125.01025879 31.91820801 -124.33301758 31.52391602 -123.63525391 31.11767578 C-100.7166244 17.93538827 -75.14177437 9.32989082 -49.3125 4 C-48.60182373 3.85256348 -47.89114746 3.70512695 -47.15893555 3.55322266 C-31.51641634 0.56786213 -15.88080394 -0.0623098 0 0 Z M-133.6875 52.3125 C-133.6875 87.2925 -133.6875 122.2725 -133.6875 158.3125 C-144.9075 158.3125 -156.1275 158.3125 -167.6875 158.3125 C-167.6875 240.1525 -167.6875 321.9925 -167.6875 406.3125 C-56.8075 406.3125 54.0725 406.3125 168.3125 406.3125 C168.3125 337.3425 168.3125 268.3725 168.3125 197.3125 C157.0925 197.3125 145.8725 197.3125 134.3125 197.3125 C135.11300781 192.62675781 135.91351563 187.94101563 136.73828125 183.11328125 C140.35873449 155.95631207 141.36524817 127.37637428 124.24073339 104.51614404 C118.62030195 97.37769867 112.44466251 90.86167828 106.03125 84.4375 C105.29255873 83.68110111 104.55386746 82.92470223 103.7927916 82.14538217 C79.41623922 57.29193409 56.53232307 46.33839926 21.61884117 45.61130333 C4.93784425 45.45052706 -11.65193155 46.18155003 -28.28838176 47.34262353 C-41.98931529 48.28151908 -55.70727995 48.63506203 -69.43252468 49.03383923 C-90.89176167 49.67178192 -112.23491352 51.04650587 -133.6875 52.3125 Z " fill="#07CB66" transform="translate(255.6875,-0.3125)"/>
<path d="M0 0 C4.17269868 3.57659887 8.23175714 7.08638406 12.20762634 10.85185242 C12.68321584 11.30189268 13.15880533 11.75193295 13.64880663 12.2156108 C15.21827981 13.70247127 16.7849907 15.19219971 18.35131836 16.68237305 C18.90459682 17.20778938 19.45787529 17.73320572 20.02791977 18.27454376 C30.95287899 28.6526041 41.77352355 39.13728548 52.55733395 49.66177654 C59.40847469 56.34399842 66.28863136 62.98972304 73.2512207 69.5559082 C79.34997917 75.30756957 85.3820587 81.12058584 91.3459025 87.01213485 C94.49426567 90.11819632 97.66424499 93.18780928 100.9164257 96.18530846 C122.8594496 116.47574631 122.8594496 116.47574631 123.69336253 132.48688465 C123.84582992 140.3990382 123.01877793 148.16743052 122 156 C121.77712176 158.27115664 121.56206968 160.54310425 121.35728455 162.81596375 C120.85234304 168.26869127 119.99351716 173.61705101 119 179 C118.83902832 179.91007813 118.67805664 180.82015625 118.51220703 181.7578125 C107.67577857 241.55074725 73.61972256 299.05167861 25 336 C24.45972168 336.41668945 23.91944336 336.83337891 23.36279297 337.26269531 C13.3677884 344.9459873 2.90790964 351.68842968 -8 358 C-8.67724121 358.39429199 -9.35448242 358.78858398 -10.05224609 359.19482422 C-32.9708756 372.37711173 -58.54572563 380.98260918 -84.375 386.3125 C-85.08567627 386.45993652 -85.79635254 386.60737305 -86.52856445 386.75927734 C-102.17108366 389.74463787 -117.80669606 390.3748098 -133.6875 390.3125 C-134.65489105 390.31067719 -135.6222821 390.30885437 -136.61898804 390.30697632 C-150.94238463 390.26157845 -164.91156816 389.7903353 -179 387 C-180.52101318 386.71068604 -180.52101318 386.71068604 -182.07275391 386.41552734 C-187.15798375 385.43478796 -192.23401093 384.40775787 -197.2890625 383.28125 C-198.08006348 383.10658203 -198.87106445 382.93191406 -199.68603516 382.75195312 C-204.34899992 381.23666177 -207.74334479 378.50660426 -211.1698761 375.07736206 C-212.3665818 373.88694809 -212.3665818 373.88694809 -213.58746338 372.67248535 C-214.87895294 371.37256653 -214.87895294 371.37256653 -216.1965332 370.04638672 C-217.11409897 369.1307193 -218.03166473 368.21505188 -218.97703552 367.27163696 C-221.48538409 364.76812184 -223.98746103 362.25842459 -226.48830438 359.74741507 C-229.10619436 357.12072768 -231.72936903 354.49932764 -234.35185242 351.87722778 C-238.75076316 347.47738166 -243.14578932 343.07368553 -247.53833008 338.66748047 C-252.62298262 333.56706959 -257.71287618 328.4719375 -262.80577976 323.37976635 C-267.70282041 318.48333491 -272.59700352 313.58405826 -277.48958397 308.68317032 C-279.57373956 306.59547663 -281.65874907 304.50864123 -283.74440956 302.42245102 C-286.64943502 299.51623926 -289.55018488 296.60579709 -292.45043945 293.69482422 C-293.75711075 292.3888327 -293.75711075 292.3888327 -295.09017944 291.05645752 C-295.87388412 290.26848785 -296.65758881 289.48051819 -297.46504211 288.66867065 C-298.15173635 287.98030058 -298.83843058 287.2919305 -299.54593372 286.58270073 C-301 285 -301 285 -301 284 C-190.45 284 -79.9 284 34 284 C34 215.03 34 146.06 34 75 C22.78 75 11.56 75 0 75 C0 50.25 0 25.5 0 0 Z " fill="#18AB5C" transform="translate(390,122)"/>
<path d="M0 0 C0.33 0 0.66 0 1 0 C1 81.51 1 163.02 1 247 C56.11 247 111.22 247 168 247 C168 221.26 168 195.52 168 169 C163.71 169 159.42 169 155 169 C154.731875 170.258125 154.46375 171.51625 154.1875 172.8125 C150.75191718 188.24808282 150.75191718 188.24808282 149 190 C147.21928754 190.08726223 145.4351686 190.10699041 143.65234375 190.09765625 C142.57275391 190.09443359 141.49316406 190.09121094 140.38085938 190.08789062 C139.24455078 190.07951172 138.10824219 190.07113281 136.9375 190.0625 C135.79732422 190.05798828 134.65714844 190.05347656 133.48242188 190.04882812 C130.65489649 190.03699747 127.8274736 190.0205141 125 190 C126.18357567 183.53624475 127.70575508 177.32397065 129.6875 171.0625 C132.19805135 162.93131131 134.40273684 154.74687513 136.5 146.5 C139.18001337 135.9794273 142.10023489 125.56584532 145.33325195 115.20214844 C146.25869209 112.14558672 147.1226537 109.07071205 148 106 C154.6 106 161.2 106 168 106 C168 83.89 168 61.78 168 39 C223.44 39 278.88 39 336 39 C336 107.97 336 176.94 336 248 C225.12 248 114.24 248 0 248 C0 166.16 0 84.32 0 0 Z " fill="#FBB811" transform="translate(88,158)"/>
<path d="M0 0 C47.12320323 -2.78090936 47.12320323 -2.78090936 67.36914062 -3.36914062 C81.18906653 -3.77397447 94.97890791 -4.24277038 108.77270508 -5.20532227 C151.94633685 -8.15243621 193.5471876 -10.28528038 228.37722725 19.034172 C251.3267793 39.184645 270.1232341 61.76963141 272.36659873 93.14561427 C273.27624604 110.53963853 271.27286226 127.93506017 268 145 C245.48650044 145.35073887 222.97345256 145.61507539 200.45777321 145.77718258 C190.00265691 145.85446106 179.54924007 145.95976797 169.09521484 146.1315918 C159.98100462 146.28132255 150.86802511 146.37792271 141.75261915 146.41132742 C136.9273261 146.43085056 132.10555297 146.47655438 127.28139114 146.58595085 C122.73460133 146.68821657 118.19275865 146.71909689 113.64492798 146.69661522 C111.98146977 146.70072344 110.31783683 146.73032808 108.65537643 146.78808212 C96.48664207 147.18988874 96.48664207 147.18988874 92.35317767 143.54970777 C87.29897416 137.65551509 84.19852217 130.57269333 80.98803711 123.57202148 C77.95382089 117.10366266 74.82863377 111.33051103 69 107 C57.7544031 103.16575866 45.19604537 104.5348703 33.5625 105.0625 C22.486875 105.371875 11.41125 105.68125 0 106 C0 71.02 0 36.04 0 0 Z " fill="#E6EAF4" transform="translate(122,52)"/>
<path d="M0 0 C44.22 0 88.44 0 134 0 C134 47.52 134 95.04 134 144 C120.8 144 107.6 144 94 144 C84 129 84 129 80.98803711 122.57202148 C77.95382089 116.10366266 74.82863377 110.33051103 69 106 C57.7544031 102.16575866 45.19604537 103.5348703 33.5625 104.0625 C22.486875 104.371875 11.41125 104.68125 0 105 C0 70.35 0 35.7 0 0 Z " fill="#FEFEFE" transform="translate(122,53)"/>
<path d="M0 0 C12.21 0 24.42 0 37 0 C42.79667915 18.54937327 42.79667915 18.54937327 45.31086731 27.64607239 C45.49279947 28.30331614 45.67473164 28.96055988 45.8621769 29.63772011 C46.04816633 30.31028028 46.23415577 30.98284046 46.42578125 31.67578125 C46.8220836 33.10307479 47.21850439 34.53033545 47.61503601 35.95756531 C48.43434023 38.90896608 49.25167146 41.86090418 50.06762695 44.81323242 C51.1133615 48.5960008 52.16509186 52.3770742 53.21833515 56.15775776 C54.03341038 59.08660693 54.84493516 62.0164308 55.65541649 64.94655418 C56.04215797 66.34274753 56.43010772 67.73860679 56.8192997 69.13411903 C57.35888099 71.07056863 57.89307311 73.00851747 58.42700195 74.9465332 C58.731689 76.04633011 59.03637604 77.14612701 59.35029602 78.2792511 C60 81 60 81 60 84 C51.75 84 43.5 84 35 84 C34.175 81.091875 33.35 78.18375 32.5 75.1875 C32.23896484 74.27508545 31.97792969 73.3626709 31.70898438 72.42260742 C31.50595703 71.69920166 31.30292969 70.9757959 31.09375 70.23046875 C30.77954102 69.12288208 30.77954102 69.12288208 30.45898438 67.99291992 C30 66 30 66 30 63 C22.41 63 14.82 63 7 63 C6.34 65.97 5.68 68.94 5 72 C4.49648341 74.00442969 3.97864835 76.00540084 3.4375 78 C3.06431641 79.3921875 3.06431641 79.3921875 2.68359375 80.8125 C2 83 2 83 1 84 C-0.78071246 84.08726223 -2.5648314 84.10699041 -4.34765625 84.09765625 C-5.42724609 84.09443359 -6.50683594 84.09121094 -7.61914062 84.08789062 C-8.75544922 84.07951172 -9.89175781 84.07113281 -11.0625 84.0625 C-12.20267578 84.05798828 -13.34285156 84.05347656 -14.51757812 84.04882812 C-17.34510351 84.03699747 -20.1725264 84.0205141 -23 84 C-21.81642433 77.53624475 -20.29424492 71.32397065 -18.3125 65.0625 C-15.80194865 56.93131131 -13.59726316 48.74687513 -11.5 40.5 C-8.81998663 29.9794273 -5.89976511 19.56584532 -2.66674805 9.20214844 C-1.74130791 6.14558672 -0.8773463 3.07071205 0 0 Z " fill="#41484F" transform="translate(236,264)"/>
<path d="M0 0 C22.602284 -2.06341076 22.602284 -2.06341076 27.96826172 1.1953125 C31.15927532 4.5851533 32.51873898 8.62797354 34 13 C34.99106949 14.67199253 35.98875015 16.34013509 37 18 C37 18.66 37 19.32 37 20 C39.43999828 17.82596706 40.51628072 16.06464017 41.56640625 12.98828125 C43.60664071 7.96661687 45.56103676 3.32246335 50 0 C58.39849945 -2.20819681 67.47707911 -1.0319776 76 0 C74.51132844 4.01591869 72.60866846 7.61812482 70.48046875 11.33203125 C69.96979607 12.22519295 69.96979607 12.22519295 69.44880676 13.13639832 C68.73001768 14.39202237 68.00966615 15.64675315 67.2878418 16.90063477 C66.19797472 18.79429997 65.11322955 20.69082363 64.02929688 22.58789062 C63.3256288 23.81516608 62.62185444 25.0423806 61.91796875 26.26953125 C61.40869339 27.16238327 61.40869339 27.16238327 60.88912964 28.07327271 C59.00915077 31.34447835 57.00937796 34.47333097 54.86328125 37.57421875 C52.62473377 40.73241456 52.62473377 40.73241456 53.67944336 43.33862305 C55.13644101 46.27497569 56.66346007 49.14769428 58.265625 52.0078125 C59.23048828 53.73644531 59.23048828 53.73644531 60.21484375 55.5 C60.893103 56.70840416 61.57148898 57.91673719 62.25 59.125 C63.24213119 60.89773711 64.23340016 62.67095392 65.2244873 64.4442749 C66.19286215 66.1769496 67.16185746 67.90927748 68.13085938 69.64160156 C70.7851786 74.41077806 73.39874189 79.20171685 76 84 C71.79285562 84.26221814 67.58781109 84.42147604 63.375 84.5625 C61.59029297 84.67561523 61.59029297 84.67561523 59.76953125 84.79101562 C51.11844977 85.00850091 51.11844977 85.00850091 47.92626953 82.13012695 C46.3728625 79.81679186 45.15610717 77.53218164 44 75 C43.44570313 74.08347656 42.89140625 73.16695313 42.3203125 72.22265625 C41.92585938 71.50980469 41.53140625 70.79695313 41.125 70.0625 C40.71507812 69.33160156 40.30515625 68.60070312 39.8828125 67.84765625 C39 66 39 66 39 64 C38.34 64 37.68 64 37 64 C36.75507813 64.83789062 36.51015625 65.67578125 36.2578125 66.5390625 C34.83833721 70.44482371 32.98068342 73.81003295 30.875 77.375 C29.59625 79.56125 28.3175 81.7475 27 84 C18.09 84 9.18 84 0 84 C4.35501142 76.0158124 8.74179888 68.05799069 13.1875 60.125 C13.80302734 59.02414062 14.41855469 57.92328125 15.05273438 56.7890625 C15.64763672 55.726875 16.24253906 54.6646875 16.85546875 53.5703125 C17.38809326 52.61914551 17.92071777 51.66797852 18.46948242 50.68798828 C20 48 20 48 21.8215332 45.46435547 C23.28732775 43.06803453 23.28732775 43.06803453 22.4074707 40.58325195 C21.94300537 39.73077881 21.47854004 38.87830566 21 38 C20.46656982 37.00637451 19.93313965 36.01274902 19.38354492 34.98901367 C18.75552979 33.89306885 18.12751465 32.79712402 17.48046875 31.66796875 C17.14002029 31.07252762 16.79957184 30.47708649 16.44880676 29.86360168 C15.73001768 28.60797763 15.00966615 27.35324685 14.2878418 26.09936523 C13.19797472 24.20570003 12.11322955 22.30917637 11.02929688 20.41210938 C8.10011169 15.29892021 5.16774867 10.20192637 1.98828125 5.23828125 C0 2 0 2 0 0 Z " fill="#36393E" transform="translate(301,264)"/>
<path d="M0 0 C27.72 0 55.44 0 84 0 C84 8.25 84 16.5 84 25 C74.1 25 64.2 25 54 25 C54 44.8 54 64.6 54 85 C45.75 85 37.5 85 29 85 C29 65.2 29 45.4 29 25 C19.43 25 9.86 25 0 25 C0 16.75 0 8.5 0 0 Z " fill="#444A4E" transform="translate(135,263)"/>
<path d="M0 0 C4.65191329 3.98735425 9.08759402 7.94221032 13.39428711 12.26489258 C13.9902771 12.85913025 14.58626709 13.45336792 15.20031738 14.06561279 C17.14516139 16.00609908 19.08637668 17.95016766 21.02734375 19.89453125 C22.38482814 21.25134139 23.74246089 22.6080031 25.10023499 23.96452332 C27.93181313 26.79463321 30.76158936 29.62652915 33.59008789 32.4597168 C37.2240874 36.09944591 40.86260195 39.73462334 44.50244808 43.36850452 C47.29994452 46.16239963 50.09507002 48.95865689 52.88946724 51.75565147 C54.23123239 53.09808539 55.5737454 54.43977222 56.91700554 55.78071022 C58.78425112 57.64543279 60.64828943 59.51330168 62.51147461 61.38208008 C63.07087234 61.93945358 63.63027008 62.49682709 64.20661926 63.0710907 C68 66.88573095 68 66.88573095 68 68 C45.56 68 23.12 68 0 68 C0 45.56 0 23.12 0 0 Z " fill="#A1D4FE" transform="translate(321,53)"/>
<path d="M0 0 C5.61 0 11.22 0 17 0 C20.32984865 10.51386823 23.48633873 21.04640352 26.42578125 31.67578125 C26.8220836 33.10307479 27.21850439 34.53033545 27.61503601 35.95756531 C28.43434023 38.90896608 29.25167146 41.86090418 30.06762695 44.81323242 C31.1133615 48.5960008 32.16509186 52.3770742 33.21833515 56.15775776 C34.03341038 59.08660693 34.84493516 62.0164308 35.65541649 64.94655418 C36.04215797 66.34274753 36.43010772 67.73860679 36.8192997 69.13411903 C37.35888099 71.07056863 37.89307311 73.00851747 38.42700195 74.9465332 C38.731689 76.04633011 39.03637604 77.14612701 39.35029602 78.2792511 C40 81 40 81 40 84 C31.75 84 23.5 84 15 84 C14.175 81.091875 13.35 78.18375 12.5 75.1875 C12.23896484 74.27508545 11.97792969 73.3626709 11.70898438 72.42260742 C11.40444336 71.33749878 11.40444336 71.33749878 11.09375 70.23046875 C10.77954102 69.12288208 10.77954102 69.12288208 10.45898438 67.99291992 C10 66 10 66 10 63 C6.7 63 3.4 63 0 63 C0 57.39 0 51.78 0 46 C1.65 46 3.3 46 5 46 C4.6390625 45.19304687 4.278125 44.38609375 3.90625 43.5546875 C-1.51058271 29.3806419 -0.4373171 14.92709051 0 0 Z " fill="#35393E" transform="translate(256,264)"/>
<path d="M0 0 C1.38786998 2.63791114 2.45064138 5.18028407 3.2890625 8.0390625 C3.61777344 9.15667969 3.61777344 9.15667969 3.953125 10.296875 C4.17484375 11.06515625 4.3965625 11.8334375 4.625 12.625 C4.85445313 13.40101563 5.08390625 14.17703125 5.3203125 14.9765625 C7 20.73549107 7 20.73549107 7 23 C2.71 23 -1.58 23 -6 23 C-1.79411765 3.58823529 -1.79411765 3.58823529 0 0 Z " fill="#F7CD03" transform="translate(254,287)"/>
<path d="M0 0 C2.6081539 5.2163078 3.64327731 10.32643237 5 16 C0.71 16 -3.58 16 -8 16 C-7.67 15.01 -7.34 14.02 -7 13 C-7 13.66 -7 14.32 -7 15 C-4.69 15 -2.38 15 0 15 C0 10.05 0 5.1 0 0 Z " fill="#EBB113" transform="translate(256,294)"/>
</svg>
